<svg aria-hidden="true" style="position: absolute; width: 0; height: 0; overflow: hidden;" version="1.1" xmlns="http://www.w3.org/2000/svg" xmlns:xlink="http://www.w3.org/1999/xlink">
<defs>
<symbol id="book-open" >
<path d="M14.6667 4.13333C14.6667 3.3866 14.6667 3.01323 14.5213 2.72801C14.3935 2.47713 14.1895 2.27316 13.9387 2.14532C13.6534 2 13.2801 2 12.5333 2H12.2667C10.7732 2 10.0265 2 9.45603 2.29065C8.95426 2.54631 8.54631 2.95426 8.29065 3.45603C8 4.02646 8 4.77319 8 6.26667V14L8.0667 13.8999C8.5298 13.2053 8.76135 12.858 9.06727 12.6065C9.33809 12.3839 9.65016 12.2169 9.9856 12.1151C10.3645 12 10.7819 12 11.6168 12H12.5333C13.2801 12 13.6534 12 13.9387 11.8547C14.1895 11.7268 14.3935 11.5229 14.5213 11.272C14.6667 10.9868 14.6667 10.6134 14.6667 9.86667V4.13333Z"></path>
<path  d="M1.33331 4.13333C1.33331 3.3866 1.33331 3.01323 1.47864 2.72801C1.60647 2.47713 1.81044 2.27316 2.06133 2.14532C2.34654 2 2.71991 2 3.46665 2H3.73331C5.22679 2 5.97352 2 6.54395 2.29065C7.04572 2.54631 7.45367 2.95426 7.70933 3.45603C7.99998 4.02646 7.99998 4.77319 7.99998 6.26667V14L7.93328 13.8999C7.47018 13.2053 7.23863 12.858 6.93271 12.6065C6.66188 12.3839 6.34982 12.2169 6.01438 12.1151C5.63548 12 5.21805 12 4.3832 12H3.46665C2.71991 12 2.34654 12 2.06133 11.8547C1.81044 11.7268 1.60647 11.5229 1.47864 11.272C1.33331 10.9868 1.33331 10.6134 1.33331 9.86667V4.13333Z"></path>
</symbol>

<symbol id="heart" >
<path d="M22.5766 4.99419C22.0233 4.44061 21.3663 4.00147 20.6433 3.70187C19.9202 3.40226 19.1452 3.24805 18.3625 3.24805C17.5798 3.24805 16.8047 3.40226 16.0817 3.70187C15.3586 4.00147 14.7016 4.44061 14.1483 4.99419L13 6.14252L11.8516 4.99419C10.734 3.87652 9.21809 3.24863 7.63747 3.24863C6.05685 3.24863 4.54097 3.87652 3.4233 4.99419C2.30563 6.11186 1.67773 7.62774 1.67773 9.20836C1.67773 10.789 2.30563 12.3049 3.4233 13.4225L4.57163 14.5709L13 22.9992L21.4283 14.5709L22.5766 13.4225C23.1302 12.8692 23.5693 12.2122 23.869 11.4892C24.1686 10.7661 24.3228 9.99105 24.3228 9.20836C24.3228 8.42566 24.1686 7.65064 23.869 6.92756C23.5693 6.20448 23.1302 5.54751 22.5766 4.99419Z"></path>
</symbol>

<symbol id="log-in">
<path   d="M12.5 2.5H13.5C14.9001 2.5 15.6002 2.5 16.135 2.77248C16.6054 3.01217 16.9878 3.39462 17.2275 3.86502C17.5 4.3998 17.5 5.09987 17.5 6.5V13.5C17.5 14.9001 17.5 15.6002 17.2275 16.135C16.9878 16.6054 16.6054 16.9878 16.135 17.2275C15.6002 17.5 14.9001 17.5 13.5 17.5H12.5"></path>
<path  d="M8.33333 5.83325L12.5 9.99992M12.5 9.99992L8.33333 14.1666M12.5 9.99992L2.5 9.99992"></path>
</symbol>

<symbol id="star">
<path d="M6.20021 4.69703L8 1.28579L9.79979 4.69703C9.95896 4.9987 10.2491 5.20947 10.5851 5.26762L14.3856 5.92519L11.6975 8.69103C11.4598 8.93563 11.3489 9.27666 11.3975 9.61427L11.9465 13.4319L8.48537 11.7301C8.17929 11.5795 7.82071 11.5795 7.51463 11.7301L4.05348 13.4319L4.6025 9.61427C4.65105 9.27666 4.54024 8.93563 4.30252 8.69103L1.6144 5.92519L5.41486 5.26762C5.75095 5.20947 6.04104 4.9987 6.20021 4.69703Z"></path>
</symbol>

<symbol id="status" viewBox="0 0 32 32">
<path fill="#fff" d="M32 16c0 8.837-7.163 16-16 16s-16-7.163-16-16c0-8.837 7.163-16 16-16s16 7.163 16 16z"></path>
<path fill="#38cd3e" d="M26.667 16c0 5.891-4.776 10.667-10.667 10.667s-10.667-4.776-10.667-10.667c0-5.891 4.776-10.667 10.667-10.667s10.667 4.776 10.667 10.667z"></path>
</symbol>

<symbol id="eye">
        <path d="M14.9502 14.9499C13.5257 16.0358 11.7911 16.6373 10.0002 16.6666C4.16683 16.6666 0.833496 9.99994 0.833496 9.99994C1.87007 8.06819 3.30778 6.38045 5.05016 5.04994M8.25016 3.53327C8.82377 3.39901 9.41105 3.33189 10.0002 3.33327C15.8335 3.33327 19.1668 9.99994 19.1668 9.99994C18.661 10.9463 18.0577 11.8372 17.3668 12.6583M11.7668 11.7666C11.538 12.0122 11.262 12.2092 10.9553 12.3459C10.6486 12.4825 10.3176 12.556 9.98191 12.5619C9.64623 12.5678 9.3128 12.5061 9.00151 12.3803C8.69021 12.2546 8.40743 12.0675 8.17004 11.8301C7.93264 11.5927 7.74549 11.3099 7.61975 10.9986C7.49402 10.6873 7.43227 10.3539 7.43819 10.0182C7.44411 9.68252 7.51759 9.35148 7.65423 9.04481C7.79087 8.73815 7.98787 8.46215 8.2335 8.23327"></path>
        <path d="M0.833496 0.833374L19.1668 19.1667"></path>
</symbol>
</defs>
</svg>
